<?xml version="1.0" encoding="utf-8"?>
<!-- Generator: Adobe Illustrator 18.0.0, SVG Export Plug-In . SVG Version: 6.00 Build 0)  -->
<!DOCTYPE svg PUBLIC "-//W3C//DTD SVG 1.1//EN" "http://www.w3.org/Graphics/SVG/1.1/DTD/svg11.dtd">
<svg version="1.1" xmlns="http://www.w3.org/2000/svg" xmlns:xlink="http://www.w3.org/1999/xlink" x="0px" y="0px"
	 viewBox="0 0 42 42" enable-background="new 0 0 42 42" xml:space="preserve">
<g id="Layer_1">
	<rect x="5.6" y="6.2" fill="#EFF9FE" width="15.5" height="4.2"/>
	<path fill="#3D6480" d="M4.1,4.7v7.2h18.5V4.7H4.1z M21.2,10.4H5.6V6.2h15.5v4.2H21.2z"/>
	<rect x="5.6" y="16.2" fill="#EFF9FE" width="15.5" height="4.2"/>
	<path fill="#3D6480" d="M4.1,14.7v7.2h18.5v-7.2H4.1z M21.2,20.4H5.6v-4.2h15.5v4.2H21.2z"/>
	<path fill="#3D6480" d="M4.1,4.7v7.2h18.5V4.7H4.1z M21.2,10.4H5.6V6.2h15.5v4.2H21.2z"/>
	<rect x="5.6" y="16.2" fill="#EFF9FE" width="15.5" height="4.2"/>
	<rect x="5.6" y="16.2" fill="none" width="15.5" height="4.2"/>
	<path fill="#3D6480" d="M28,21.3h-5.4v-6.6H4.1v7.2h17.8v5.5l9.9,9.9l6.1-6.1L28,21.3z M21.1,20.4H5.6v-4.2h15.5V20.4z M31.7,35.8
		L22.9,27v-4.6h4.6l8.8,8.8L31.7,35.8z"/>
	<g>
		<path fill="#EEF8FD" d="M27.5,22.4h-4.6V27l8.8,8.8l4.6-4.6L27.5,22.4z M26,27.3c-1.1,0-2-0.9-2-2c0-1.1,0.9-2,2-2s2,0.9,2,2
			C28,26.3,27.1,27.3,26,27.3z"/>
		<path fill="#3D6480" d="M26,23.2c-1.1,0-2,0.9-2,2c0,1.1,0.9,2,2,2s2-0.9,2-2C28,24.1,27.1,23.2,26,23.2z M26,26.3
			c-0.6,0-1-0.5-1-1c0-0.6,0.5-1,1-1s1,0.5,1,1C27,25.8,26.6,26.3,26,26.3z"/>
	</g>
</g>
<g id="Layer_2">
</g>
</svg>
