<?xml version="1.0" encoding="utf-8"?>
<!-- Generator: Adobe Illustrator 18.0.0, SVG Export Plug-In . SVG Version: 6.00 Build 0)  -->
<!DOCTYPE svg PUBLIC "-//W3C//DTD SVG 1.1//EN" "http://www.w3.org/Graphics/SVG/1.1/DTD/svg11.dtd">
<svg version="1.1" id="Layer_1" xmlns="http://www.w3.org/2000/svg" xmlns:xlink="http://www.w3.org/1999/xlink" x="0px" y="0px"
	 viewBox="0 0 42 42" enable-background="new 0 0 42 42" xml:space="preserve">
<path fill="#EFF9FE" d="M29.2,10.8c-1.4-1.3-3.1-2.2-5-2.7c0.8,1.2,1.5,2.4,2.1,3.7C27.2,11.5,28.2,11.2,29.2,10.8z"/>
<path fill="#EFF9FE" d="M27.8,19H33c-0.1-3-1.3-5.7-3.2-7.7c-1,0.5-2.1,0.9-3.2,1.2C27.3,14.6,27.7,16.8,27.8,19z"/>
<path fill="#EFF9FE" d="M25.8,12.8c-1.3,0.3-2.7,0.5-4.1,0.5V19H27C26.9,16.9,26.5,14.7,25.8,12.8z"/>
<path fill="#EFF9FE" d="M21.7,26.5v4.7c0.4,0,0.9-0.1,1.3-0.1c1-1.2,1.8-2.6,2.5-4.1C24.3,26.6,23,26.5,21.7,26.5z"/>
<path fill="#EFF9FE" d="M27,19.8h-5.3v5.8c1.4,0,2.8,0.2,4.1,0.5C26.5,24.2,26.9,22,27,19.8z"/>
<path fill="#EFF9FE" d="M22.9,7.8c-0.4-0.1-0.8-0.1-1.2-0.1v4.7c1.3,0,2.5-0.2,3.7-0.4C24.8,10.5,24,9.1,22.9,7.8z"/>
<path fill="#EFF9FE" d="M24.2,30.8c0.3-0.1,0.5-0.2,0.8-0.3l3-2.9c-0.6-0.2-1.2-0.4-1.8-0.6C25.7,28.4,25,29.7,24.2,30.8z"/>
<path fill="#EFF9FE" d="M27.8,19.8c0,2.3-0.4,4.5-1.2,6.5c0.7,0.2,1.4,0.4,2.1,0.7l3.6-3.4c0.4-1.2,0.7-2.4,0.8-3.8H27.8z"/>
<path fill="#3E6480" d="M24.2,30.8c0.8-1.1,1.5-2.4,2.1-3.7c0.6,0.2,1.2,0.4,1.8,0.6l0.6-0.6c-0.7-0.3-1.4-0.5-2.1-0.7
	c0.7-2,1.1-4.2,1.2-6.5H33c0,1.3-0.3,2.6-0.8,3.8l2.3-2.2c0.1-0.6,0.2-1.3,0.2-1.9C34.7,12,28.7,6,21.3,6H21v0
	C13.7,6.2,7.9,12.1,7.9,19.4c0,7.3,5.9,13.3,13.2,13.4v0h0.2c0.5,0,0.9,0,1.4-0.1l2.4-2.3C24.8,30.6,24.5,30.7,24.2,30.8z"/>
<path fill="#3E6480" d="M18.4,8.1c-0.8,1.2-1.5,2.4-2.1,3.7c-1-0.3-2-0.6-2.9-1.1C14.8,9.5,16.6,8.6,18.4,8.1z"/>
<path fill="#3E6480" d="M12.8,11.4c1,0.5,2.1,0.9,3.2,1.2c-0.8,2-1.2,4.2-1.2,6.5H9.6C9.7,16.1,10.9,13.4,12.8,11.4z"/>
<path fill="#3E6480" d="M9.6,19.8h5.3c0,2.3,0.4,4.5,1.2,6.5c-1.1,0.3-2.2,0.7-3.2,1.2C10.9,25.5,9.7,22.8,9.6,19.8z"/>
<path fill="#3E6480" d="M13.4,28.1c0.9-0.4,1.9-0.8,2.9-1c0.5,1.3,1.2,2.6,2.1,3.7C16.5,30.3,14.8,29.4,13.4,28.1z"/>
<path fill="#3E6480" d="M20.9,31.2c-0.4,0-0.9-0.1-1.3-0.1c-1-1.2-1.8-2.6-2.5-4.1c1.2-0.3,2.5-0.4,3.8-0.4V31.2z"/>
<path fill="#3E6480" d="M20.9,25.7c-1.4,0-2.8,0.2-4.1,0.5c-0.7-2-1.1-4.1-1.2-6.3h5.3V25.7z"/>
<path fill="#3E6480" d="M20.9,19h-5.3c0-2.2,0.4-4.3,1.2-6.3c1.3,0.3,2.7,0.5,4.1,0.5V19z"/>
<path fill="#3E6480" d="M20.9,12.4c-1.3,0-2.5-0.2-3.7-0.4c0.6-1.5,1.5-2.9,2.5-4.2c0.4-0.1,0.8-0.1,1.2-0.1V12.4z"/>
<path fill="#EFF9FE" d="M26.7,12.6c0.7,2,1.1,4.1,1.2,6.3h5.1c-0.1-2.8-1.2-5.4-3.2-7.5C28.8,11.9,27.8,12.3,26.7,12.6z"/>
<path fill="#3E6481" d="M33.1,19c-0.1-2.9-1.3-5.6-3.3-7.8l0-0.1l-0.1,0c-1,0.5-2.1,0.9-3.2,1.2l-0.1,0l0,0.1c0.7,2,1.2,4.2,1.2,6.5
	l0,0.1h5.5L33.1,19z M27.8,18.9c-0.1-2.2-0.4-4.3-1.2-6.3c1.1-0.3,2.1-0.7,3.1-1.1c1.9,2,3,4.7,3.2,7.5H27.8z"/>
<path fill="#EFF9FE" d="M29,10.7c-1.3-1.2-2.9-2-4.6-2.5c0.7,1,1.4,2.2,1.9,3.4C27.2,11.4,28.1,11.1,29,10.7z"/>
<path fill="#3E6481" d="M26.1,11.9L26.1,11.9l0.1,0.1c1-0.3,2-0.6,2.9-1.1l0.1-0.1l-0.1-0.1c-1.4-1.3-3.2-2.2-5-2.7l-0.3-0.1
	l0.2,0.2C24.9,9.2,25.6,10.5,26.1,11.9z M29,10.7c-0.9,0.4-1.8,0.7-2.7,1c-0.5-1.3-1.2-2.4-1.9-3.4C26.1,8.7,27.7,9.6,29,10.7z"/>
<path fill="#EFF9FE" d="M22.9,7.9c-0.4,0-0.7-0.1-1.1-0.1v4.5c1.2,0,2.4-0.2,3.5-0.4C24.7,10.5,23.9,9.2,22.9,7.9z"/>
<path fill="#3E6481" d="M25.5,12.1l0.1,0l0-0.1C24.9,10.5,24,9,23,7.8l0,0l0,0c-0.4-0.1-0.8-0.1-1.3-0.1l-0.1,0v4.9l0.1,0
	C23,12.5,24.2,12.4,25.5,12.1z M21.8,7.8c0.4,0,0.7,0,1.1,0.1c1,1.2,1.8,2.5,2.4,4c-1.1,0.2-2.3,0.4-3.5,0.4V7.8z"/>
<path fill="#EFF9FE" d="M21.8,13.3v5.6h5.1c-0.1-2.1-0.4-4.2-1.2-6.1C24.4,13.2,23.1,13.3,21.8,13.3z"/>
<path fill="#3E6481" d="M25.9,12.7L25.9,12.7l-0.1-0.1c-1.3,0.3-2.7,0.5-4,0.5l-0.1,0v6h5.5l0-0.1C27,16.8,26.6,14.7,25.9,12.7z
	 M21.8,18.9v-5.6c1.3,0,2.6-0.2,3.9-0.5c0.7,1.9,1.1,4,1.2,6.1H21.8z"/>
<g>
	<path fill="#EFF9FE" d="M21.8,25.6c1.3,0,2.7,0.2,3.9,0.5c0.7-1.9,1.1-3.9,1.1-6.1h-5.1V25.6z"/>
	<path fill="#3E6481" d="M21.6,19.7v6l0.1,0c1.4,0,2.8,0.2,4.1,0.5l0.1,0l0-0.1c0.7-2,1.1-4.1,1.2-6.3l0-0.1H21.6z M25.7,26
		c-1.3-0.3-2.6-0.4-3.9-0.5v-5.6h5.1C26.8,22.1,26.4,24.1,25.7,26z"/>
</g>
<path fill="#EFF9FE" d="M21.8,26.6v4.5c0.4,0,0.8-0.1,1.2-0.1c1-1.2,1.8-2.5,2.4-4C24.2,26.7,23,26.6,21.8,26.6z"/>
<path fill="#3E6481" d="M21.7,26.4l-0.1,0v4.9l0.1,0c0.4,0,0.9-0.1,1.3-0.1l0,0l0,0c1-1.2,1.9-2.6,2.5-4.2l0-0.1l-0.1,0
	C24.3,26.5,23,26.4,21.7,26.4z M21.8,31.1v-4.5c1.2,0,2.4,0.2,3.5,0.4c-0.6,1.5-1.4,2.8-2.4,4C22.6,31,22.2,31,21.8,31.1z"/>
<path fill="#EFF9FE" d="M19.6,30.9c0.4,0.1,0.8,0.1,1.2,0.1v-4.5c-1.2,0-2.4,0.2-3.5,0.4C17.9,28.4,18.7,29.8,19.6,30.9z"/>
<path fill="#3E6481" d="M17.1,26.8l-0.1,0l0,0.1c0.6,1.5,1.5,2.9,2.5,4.2l0,0l0,0c0.4,0.1,0.9,0.1,1.3,0.1l0.1,0v-4.9l-0.1,0
	C19.6,26.4,18.3,26.5,17.1,26.8z M20.8,31.1c-0.4,0-0.8-0.1-1.2-0.1c-1-1.2-1.8-2.5-2.4-4c1.2-0.2,2.3-0.4,3.5-0.4V31.1z"/>
<path fill="#EFF9FE" d="M18.2,8.3c-1.7,0.5-3.3,1.3-4.6,2.5c0.9,0.4,1.8,0.7,2.7,1C16.8,10.4,17.5,9.3,18.2,8.3z"/>
<path fill="#3E6481" d="M16.3,11.9L16.3,11.9l0.1-0.1c0.6-1.4,1.3-2.6,2.1-3.7l0.2-0.2L18.4,8c-1.9,0.5-3.6,1.4-5,2.7l-0.1,0.1
	l0.1,0.1C14.4,11.3,15.3,11.6,16.3,11.9z M18.2,8.3c-0.7,1-1.4,2.2-1.9,3.4c-0.9-0.2-1.8-0.6-2.7-1C14.9,9.6,16.5,8.7,18.2,8.3z"/>
<path fill="#EFF9FE" d="M17.3,11.9c1.1,0.2,2.3,0.4,3.5,0.4V7.8c-0.4,0-0.7,0-1.1,0.1C18.7,9.1,17.9,10.5,17.3,11.9z"/>
<path fill="#3E6481" d="M19.6,7.8L19.6,7.8L19.6,7.8c-1.1,1.3-1.9,2.7-2.6,4.2l0,0.1l0.1,0c1.2,0.3,2.5,0.4,3.8,0.4l0.1,0V7.6
	l-0.1,0C20.5,7.7,20.1,7.7,19.6,7.8z M20.8,12.3c-1.2,0-2.4-0.2-3.5-0.4c0.6-1.4,1.4-2.8,2.4-4c0.4,0,0.7-0.1,1.1-0.1V12.3z"/>
<path fill="#EFF9FE" d="M12.8,11.5c-1.9,2-3,4.7-3.2,7.5h5.1c0.1-2.2,0.4-4.3,1.2-6.3C14.8,12.3,13.8,11.9,12.8,11.5z"/>
<path fill="#3E6481" d="M14.9,19.1c0-2.3,0.4-4.4,1.2-6.5l0-0.1l-0.1,0c-1.1-0.3-2.2-0.7-3.2-1.2l-0.1,0l0,0.1
	c-2,2.1-3.2,4.9-3.3,7.8l0,0.1L14.9,19.1L14.9,19.1z M9.7,18.9c0.1-2.8,1.2-5.4,3.2-7.5c1,0.5,2,0.8,3.1,1.1c-0.7,2-1.1,4.1-1.2,6.3
	H9.7z"/>
<path fill="#EFF9FE" d="M15.7,18.9h5v-5.6c-1.3,0-2.6-0.2-3.9-0.5C16.2,14.8,15.8,16.8,15.7,18.9z"/>
<path fill="#3E6481" d="M16.9,12.7L16.9,12.7l-0.1,0.1c-0.7,2-1.2,4.1-1.2,6.3l0,0.1H21v-6l-0.1,0C19.5,13.1,18.2,13,16.9,12.7z
	 M20.8,18.9h-5c0.1-2.1,0.4-4.2,1.2-6.1c1.3,0.3,2.6,0.4,3.9,0.5V18.9z"/>
<path fill="#EFF9FE" d="M20.8,25.6v-5.6h-5.1c0.1,2.1,0.4,4.2,1.1,6.1C18.1,25.7,19.5,25.6,20.8,25.6z"/>
<path fill="#3E6481" d="M15.5,19.9c0,2.2,0.4,4.3,1.2,6.3l0,0.1l0.1,0c1.3-0.3,2.7-0.5,4.1-0.5l0.1,0v-6h-5.5L15.5,19.9z M20.8,19.9
	v5.6c-1.3,0-2.7,0.2-3.9,0.5c-0.7-1.9-1.1-3.9-1.1-6.1H20.8z"/>
<path fill="#EFF9FE" d="M13.6,28.1c1.3,1.2,2.9,2,4.5,2.5c-0.7-1-1.3-2.2-1.9-3.4C15.3,27.4,14.4,27.8,13.6,28.1z"/>
<path fill="#3E6481" d="M16.4,27L16.4,27L16.3,27c-1,0.3-2,0.6-2.9,1l-0.1,0.1l0.1,0.1c1.4,1.3,3.2,2.2,5,2.7l0.3,0.1l-0.2-0.2
	C17.7,29.6,17,28.4,16.4,27z M13.6,28.1c0.9-0.4,1.8-0.7,2.7-0.9c0.5,1.2,1.1,2.4,1.9,3.4C16.5,30.1,14.9,29.3,13.6,28.1z"/>
<path fill="#EFF9FE" d="M9.7,19.9c0.1,2.8,1.2,5.4,3.1,7.4c1-0.5,2-0.8,3.1-1.1c-0.7-2-1.1-4.1-1.1-6.3H9.7z"/>
<path fill="#3E6481" d="M16.2,26.4l0-0.1c-0.7-2-1.1-4.2-1.2-6.5l0-0.1H9.5l0,0.1c0.1,2.9,1.2,5.6,3.2,7.7l0,0.1l0.1,0
	c1-0.5,2.1-0.9,3.2-1.2L16.2,26.4z M12.8,27.4c-1.9-2-3-4.7-3.1-7.4h5.1c0.1,2.2,0.4,4.3,1.1,6.3C14.8,26.6,13.8,26.9,12.8,27.4z"/>
<path fill-rule="evenodd" clip-rule="evenodd" fill="none" d="M0.3,3.2c0-1.7,1.3-3,3-3h36c1.7,0,3,1.3,3,3v36c0,1.7-1.3,3-3,3h-36
	c-1.7,0-3-1.3-3-3V3.2z"/>
<polygon fill="#3E6480" points="37.4,32.9 37.4,36 32.2,30.7 30.8,32.1 36.1,37.3 32.9,37.3 32.9,39.2 39.3,39.2 39.3,32.9 "/>
</svg>
